<?xml version="1.0"?>
<svg width="100" height="100" xmlns="http://www.w3.org/2000/svg" xmlns:svg="http://www.w3.org/2000/svg">
 <!-- Created with SVG-edit - http://svg-edit.googlecode.com/ -->
 <g>
  <title>Layer 1</title>
  <g id="layer1" stroke="null">
   <text id="svg_2" stroke="null" transform="matrix(1.928859207639789,0,0,1.8610524932346948,-0.7966675701708286,-2.208220049824562) " font-style="normal" font-weight="normal" font-size="11.288889px" font-family="sans-serif" fill="#000000" stroke-width="0.264583" y="111.211155" x="79.28565" xml:space="preserve"/>
   <g id="svg_3" stroke="null" transform="matrix(0.9018192390003406,0,0,0.8504688304211724,-88.32903330822256,-85.9681573770826) ">
    <path id="svg_4" stroke="null" fill="#00222b" stroke-width="0.264583" d="m181.867268,195.241656l-27.09214,-14.05992l-26.94118,14.34708l4.99984,-30.11092l-21.97016,-21.18909l30.18221,-4.54965l13.36287,-27.44265l13.6538,27.29907l30.22887,4.2286l-21.74371,21.4214l5.3196,30.05608z"/>
    <path id="svg_5" stroke="null" fill="#006680" stroke-width="0.264583" d="m177.633978,196.299976l-27.09215,-14.05992l-26.94117,14.34708l4.99984,-30.11092l-21.97016,-21.18909l30.18221,-4.54965l13.36287,-27.44266l13.6538,27.29908l30.22887,4.2286l-21.74371,21.4214l5.3196,30.05608z"/>
    <path id="svg_6" stroke="null" fill="#00222b" stroke-width="0.264583" d="m181.867268,195.241656l-27.09214,-14.05992l-26.94118,14.34708l4.99984,-30.11092l-21.97016,-21.18909l30.18221,-4.54965l13.36287,-27.44265l13.6538,27.29907l30.22887,4.2286l-21.74371,21.4214l5.3196,30.05608z" transform="rotate(41.35722351074219 154.6529846191406,158.1999969482422) "/>
    <path id="svg_7" stroke="null" fill="#006680" stroke-width="0.264583" d="m181.867268,195.241656l-27.09214,-14.05992l-26.94118,14.34708l4.99984,-30.11092l-21.97016,-21.18909l30.18221,-4.54965l13.36287,-27.44265l13.6538,27.29907l30.22887,4.2286l-21.74371,21.4214l5.3196,30.05608z" transform="rotate(42.1887321472168 150.74328613281253,154.19256591796875) "/>
    <text id="svg_8" stroke="null" font-style="normal" font-weight="normal" font-size="38.805557px" font-family="Chiller" fill="#d5f6ff" stroke-width="0.264583" xml:space="preserve" x="131.218459" y="171.807136">
     <tspan id="svg_9" stroke="null" font-style="normal" font-weight="normal" font-size="38.805557px" font-family="Chiller" fill="#d5f6ff" stroke-width="0.264583" x="131.218459" y="171.807136">KC</tspan>
    </text>
   </g>
  </g>
 </g>
</svg>